<?xml version="1.0" encoding="utf-8"?>
<!-- Generator: Adobe Illustrator 22.1.0, SVG Export Plug-In . SVG Version: 6.00 Build 0)  -->
<svg version="1.1" id="Layer_1" xmlns="http://www.w3.org/2000/svg" xmlns:xlink="http://www.w3.org/1999/xlink" x="0px" y="0px"
	 viewBox="0 0 256 256" style="enable-background:new 0 0 256 256;" xml:space="preserve">
<style type="text/css">
	.st0{fill:#231F20;}
	.st1{fill:#FFEFE4;}
	.st2{fill:#69EBFC;}
	.st3{fill:#5FD4E3;}
	.st4{fill:#A1F1FC;}
	.st5{fill:#D476E2;}
	.st6{fill:#B665C2;}
	.st7{fill:#EA82FA;}
	.st8{fill:#FFF7F2;}
	.st9{fill:#FF8354;}
	.st10{fill:#FFA172;}
	.st11{fill:#6770E6;}
	.st12{fill:#5861C7;}
	.st13{fill:#E0734A;}
	.st14{fill:#EDD4C2;}
	.st15{fill:#CC6944;}
	.st16{fill:#858EFF;}
	.st17{fill:#C76642;}
	.st18{fill:#FFFFFF;}
	.st19{fill:#FFDEC7;}
	.st20{fill:#4E56B0;}
	.st21{fill:#94529E;}
	.st22{fill:#41B6C5;}
	.st23{fill:#9847A4;}
	.st24{fill:#C2552C;}
	.st25{fill:#CFB6A4;}
</style>
<g>
	<path class="st2" d="M256,89.6v149.333c0,9.426-7.641,17.067-17.067,17.067H17.067C7.641,256,0,248.359,0,238.933V89.6
		L103.436,9.114c14.447-11.242,34.682-11.242,49.129,0L256,89.6z"/>
	<path class="st5" d="M217.6,256H38.4c-9.426,0-17.067-7.641-17.067-17.067V17.067C21.333,7.641,28.974,0,38.4,0h179.2
		c9.426,0,17.067,7.641,17.067,17.067v221.867C234.667,248.359,227.026,256,217.6,256z"/>
	<path class="st7" d="M217.6,0H38.4c-9.426,0-17.067,7.641-17.067,17.067v6C21.333,13.641,28.974,6,38.4,6h179.2
		c9.426,0,17.067,7.641,17.067,17.067v-6C234.667,7.641,227.026,0,217.6,0z"/>
	<path class="st1" d="M256,89.6v149.333c0,9.429-7.637,17.067-17.067,17.067H64L256,89.6z"/>
	<path class="st14" d="M238.933,246H75.538L64,256h174.933c9.429,0,17.067-7.637,17.067-17.067v-10
		C256,238.363,248.363,246,238.933,246z"/>
	<polygon class="st14" points="64,256 212,256 138,191.867 	"/>
	<path class="st1" d="M192,256H17.067C7.637,256,0,248.363,0,238.933V89.6L192,256z"/>
	<path class="st14" d="M17.067,246C7.637,246,0,238.363,0,228.933v10C0,248.363,7.637,256,17.067,256H192l-11.538-10H17.067z"/>
	<circle class="st2" cx="128" cy="88" r="68"/>
	<path class="st9" d="M138.833,77.183l-15.76-15.76l-8.059-8.059c-4.399-4.399-10.259-6.817-16.511-6.817
		c-6.248,0-12.112,2.418-16.507,6.817c-9.104,9.104-9.104,23.914,0,33.014l23.819,23.824c4.395,4.395,10.259,6.817,16.511,6.817
		c3.751,0,7.366-0.875,10.602-2.526l-9.124-9.124c-0.487,0.066-0.978,0.095-1.477,0.095c-3.165,0-6.128-1.221-8.34-3.433
		L90.166,78.211c-4.597-4.601-4.597-12.079,0-16.676c2.212-2.216,5.175-3.433,8.336-3.433c3.165,0,6.124,1.217,8.34,3.433l7.54,7.54
		l8.476,8.476l7.804,7.804c3.512,3.512,4.341,8.707,2.48,13.011l8.476,8.476C147.816,97.759,146.888,85.238,138.833,77.183z"/>
	<path class="st9" d="M141.618,106.842c-0.809,1.184-1.737,2.311-2.786,3.359c-1.758,1.754-3.747,3.198-5.905,4.292l-9.124-9.124
		c2.6-0.314,4.993-1.473,6.859-3.339c1.085-1.085,1.915-2.332,2.48-3.665L141.618,106.842z"/>
	<path class="st5" d="M174.005,89.538l-23.819-23.824c-4.395-4.395-10.259-6.817-16.511-6.817c-3.751,0-7.366,0.875-10.602,2.526
		c-2.158,1.094-4.147,2.538-5.905,4.292c-1.048,1.048-1.977,2.175-2.786,3.359c-6.198,9.083-5.27,21.603,2.786,29.659l6.636,6.636
		c2.6-0.314,4.993-1.473,6.859-3.339c1.085-1.085,1.915-2.332,2.48-3.665l-7.804-7.804c-3.512-3.512-4.341-8.707-2.48-13.011
		c0.565-1.333,1.395-2.579,2.48-3.665c1.865-1.865,4.259-3.025,6.859-3.339c0.487-0.066,0.978-0.095,1.477-0.095
		c3.165,0,6.128,1.221,8.34,3.433l23.819,23.819c4.597,4.601,4.597,12.079,0,16.676c-2.212,2.216-5.175,3.433-8.336,3.433
		c-3.165,0-6.124-1.217-8.34-3.433l-7.54-7.54c-0.809,1.184-1.737,2.311-2.786,3.359c-1.758,1.754-3.747,3.198-5.905,4.292
		l8.059,8.059c4.399,4.399,10.259,6.817,16.511,6.817c6.248,0,12.112-2.418,16.507-6.817
		C183.108,113.449,183.108,98.638,174.005,89.538z"/>
</g>
</svg>
